<svg width="58" height="58" viewBox="0 0 58 58" fill="none" xmlns="http://www.w3.org/2000/svg">
<g filter="url(#filter0_d_108_14)">
<path fill-rule="evenodd" clip-rule="evenodd" d="M14 0H44C49.5228 0 54 4.47715 54 10V40C54 45.5228 49.5228 50 44 50H14C8.47715 50 4 45.5228 4 40V10C4 4.47715 8.47715 0 14 0ZM29 13.125C30.0355 13.125 30.875 13.9645 30.875 15V23.125H39C40.0355 23.125 40.875 23.9645 40.875 25C40.875 26.0355 40.0355 26.875 39 26.875H30.875V35C30.875 36.0355 30.0355 36.875 29 36.875C27.9645 36.875 27.125 36.0355 27.125 35V26.875H19C17.9645 26.875 17.125 26.0355 17.125 25C17.125 23.9645 17.9645 23.125 19 23.125H27.125V15C27.125 13.9645 27.9645 13.125 29 13.125Z" fill="#FF3A3A"/>
</g>
<defs>
<filter id="filter0_d_108_14" x="0" y="0" width="58" height="58" filterUnits="userSpaceOnUse" color-interpolation-filters="sRGB">
<feFlood flood-opacity="0" result="BackgroundImageFix"/>
<feColorMatrix in="SourceAlpha" type="matrix" values="0 0 0 0 0 0 0 0 0 0 0 0 0 0 0 0 0 0 127 0" result="hardAlpha"/>
<feOffset dy="4"/>
<feGaussianBlur stdDeviation="2"/>
<feComposite in2="hardAlpha" operator="out"/>
<feColorMatrix type="matrix" values="0 0 0 0 0 0 0 0 0 0 0 0 0 0 0 0 0 0 0.5 0"/>
<feBlend mode="normal" in2="BackgroundImageFix" result="effect1_dropShadow_108_14"/>
<feBlend mode="normal" in="SourceGraphic" in2="effect1_dropShadow_108_14" result="shape"/>
</filter>
</defs>
</svg>
