<svg width="38" height="40" viewBox="0 0 38 40" fill="none" xmlns="http://www.w3.org/2000/svg">
<path d="M3.12784 5L3.54214 5.14717C5.60657 5.88053 6.63878 6.2472 7.22919 7.12016C7.81959 7.99312 7.81959 9.15266 7.81959 11.4717V15.8333C7.81959 20.5474 7.81959 22.9044 9.19377 24.3689C10.568 25.8333 12.7797 25.8333 17.2031 25.8333H29.7144" stroke="white" stroke-width="1.5" stroke-linecap="round"/>
<path d="M11.7294 30C13.025 30 14.0753 31.1193 14.0753 32.5C14.0753 33.8807 13.025 35 11.7294 35C10.4338 35 9.38351 33.8807 9.38351 32.5C9.38351 31.1193 10.4338 30 11.7294 30Z" stroke="white" stroke-width="1.5"/>
<path d="M25.8046 30.0001C27.1002 30.0001 28.1505 31.1194 28.1505 32.5001C28.1505 33.8808 27.1002 35.0001 25.8046 35.0001C24.5091 35.0001 23.4588 33.8808 23.4588 32.5001C23.4588 31.1194 24.5091 30.0001 25.8046 30.0001Z" stroke="white" stroke-width="1.5"/>
<path d="M7.81958 10H25.727C28.9409 10 30.5478 10 31.2431 11.1238C31.9384 12.2475 31.3054 13.8216 30.0394 16.9696L29.3692 18.6363C28.7781 20.106 28.4826 20.8409 27.895 21.2538C27.3075 21.6667 26.5572 21.6667 25.0568 21.6667H7.81958" stroke="white" stroke-width="1.5"/>
</svg>
