<svg width="40" height="41" viewBox="0 0 40 41" fill="none" xmlns="http://www.w3.org/2000/svg">
<rect width="40" height="40" transform="translate(0 0.589844)" fill="#0D4CD3"/>
<path d="M17.75 16.8398H21.8984L17.75 12.7266V16.8398ZM12.5117 11.6016H18.5234L23.0234 16.1016V25.1016C23.0234 25.5 22.877 25.8457 22.584 26.1387C22.291 26.4316 21.9336 26.5781 21.5117 26.5781H12.5117C12.0898 26.5781 11.7324 26.4316 11.4395 26.1387C11.1465 25.8457 11 25.5 11 25.1016V13.0781C11 12.6797 11.1465 12.334 11.4395 12.041C11.7324 11.748 12.0898 11.6016 12.5117 11.6016ZM19.2617 23.5898V22.0781H12.5117V23.5898H19.2617ZM21.5117 20.6016V19.0898H12.5117V20.6016H21.5117Z" fill="#0D4CD3" fill-opacity="0.0509804"/>
</svg>
