<svg width="40" height="41" viewBox="0 0 40 41" fill="none" xmlns="http://www.w3.org/2000/svg">
<rect width="40" height="40" transform="translate(0 0.589844)" fill="#8F5FE8"/>
<path d="M19.056 14.7898H27.174V16.1218H19.056V14.7898ZM26.58 14.7898H27.912C27.912 14.7898 27.912 15.2758 27.912 15.4738C27.714 22.9618 27.534 25.4998 26.94 26.2738C26.58 26.7598 26.202 26.9038 25.626 26.9578C25.086 27.0298 24.15 27.0118 23.25 26.9578C23.214 26.5798 23.07 26.0038 22.836 25.6258C23.79 25.7158 24.69 25.7158 25.05 25.7158C25.374 25.7338 25.554 25.6798 25.716 25.4458C26.184 24.8878 26.4 22.2958 26.58 15.0958V14.7898ZM22.08 10.5238H23.43C23.394 17.3818 23.358 23.6818 19.488 27.1018C19.254 26.7598 18.786 26.3098 18.426 26.0938C22.098 22.9798 22.062 17.0218 22.08 10.5238ZM13.584 11.0998H17.76V12.3598H13.584V11.0998ZM13.584 15.3118H17.796V16.5898H13.584V15.3118ZM13.548 19.6318H17.76V20.9098H13.548V19.6318ZM12.99 11.0998H14.214V17.5798C14.214 20.3878 14.034 24.3658 12.774 27.0298C12.522 26.8138 11.982 26.5078 11.658 26.3818C12.9 23.8438 12.99 20.2258 12.99 17.5798V11.0998ZM17.094 11.0998H18.336V25.2298C18.336 25.9498 18.174 26.3638 17.742 26.5978C17.256 26.8138 16.554 26.8498 15.312 26.8498C15.276 26.5078 15.114 25.8958 14.934 25.5538C15.762 25.5898 16.536 25.5718 16.752 25.5718C17.004 25.5538 17.094 25.4638 17.094 25.2298V11.0998Z" fill="white"/>
</svg>
