<svg width="40" height="41" viewBox="0 0 40 41" fill="none" xmlns="http://www.w3.org/2000/svg">
<rect width="40" height="40" transform="translate(0 0.589844)" fill="#FC424A"/>
<path d="M12.8047 19.6263L20.1523 24.457L27.5 19.6263L20.1523 14.75L12.8047 19.6263ZM29.3047 19.6263V29.3333C29.3047 29.8802 29.1257 30.3435 28.7676 30.7233C28.4095 31.1031 27.987 31.293 27.5 31.293H12.8047C12.3177 31.293 11.8952 31.1031 11.5371 30.7233C11.179 30.3435 11 29.8802 11 29.3333V19.6263C11 19.2617 11.0788 18.9351 11.2363 18.6465C11.3939 18.3579 11.6016 18.1224 11.8594 17.9401L20.1523 12.4714L28.4453 17.9401C28.7031 18.1224 28.9108 18.3579 29.0684 18.6465C29.2259 18.9351 29.3047 19.2617 29.3047 19.6263Z" fill="white"/>
</svg>
