<svg width="40" height="41" viewBox="0 0 40 41" fill="none" xmlns="http://www.w3.org/2000/svg">
<rect width="40" height="40" transform="translate(0 0.589844)" fill="#FFAB00"/>
<mask id="path-1-inside-1_258_3971" fill="white">
<path d="M25 9H15C13.8954 9 13 9.89543 13 11V27C13 28.1046 13.8954 29 15 29H25C26.1046 29 27 28.1046 27 27V11C27 9.89543 26.1046 9 25 9Z"/>
<path d="M21 25C21 25.5523 20.5523 26 20 26C19.4477 26 19 25.5523 19 25C19 24.4477 19.4477 24 20 24C20.5523 24 21 24.4477 21 25Z"/>
</mask>
<path d="M15 10H25V8H15V10ZM25 10C25.5523 10 26 10.4477 26 11H28C28 9.34315 26.6569 8 25 8V10ZM26 11V27H28V11H26ZM26 27C26 27.5523 25.5523 28 25 28V30C26.6569 30 28 28.6569 28 27H26ZM25 28H15V30H25V28ZM15 28C14.4477 28 14 27.5523 14 27H12C12 28.6569 13.3431 30 15 30V28ZM14 27V11H12V27H14ZM14 11C14 10.4477 14.4477 10 15 10V8C13.3431 8 12 9.34315 12 11H14ZM20 25V27C21.1046 27 22 26.1046 22 25H20ZM20 25H18C18 26.1046 18.8954 27 20 27V25ZM20 25V23C18.8954 23 18 23.8954 18 25H20ZM20 25H22C22 23.8954 21.1046 23 20 23V25Z" fill="white" mask="url(#path-1-inside-1_258_3971)"/>
</svg>
