<svg width="58" height="58" viewBox="0 0 58 58" fill="none" xmlns="http://www.w3.org/2000/svg">
<g filter="url(#filter0_d_108_16)">
<path fill-rule="evenodd" clip-rule="evenodd" d="M54 25C54 38.8071 42.8071 50 29 50C15.1929 50 4 38.8071 4 25C4 11.1929 15.1929 0 29 0C42.8071 0 54 11.1929 54 25ZM31.5 12.5C31.5 13.8807 30.3807 15 29 15C27.6193 15 26.5 13.8807 26.5 12.5C26.5 11.1193 27.6193 10 29 10C30.3807 10 31.5 11.1193 31.5 12.5ZM26.5 18.125C25.4645 18.125 24.625 18.9645 24.625 20C24.625 21.0355 25.4645 21.875 26.5 21.875H27.125V37.5C27.125 38.5355 27.9645 39.375 29 39.375C30.0355 39.375 30.875 38.5355 30.875 37.5V20C30.875 18.9645 30.0355 18.125 29 18.125H26.5Z" fill="white"/>
</g>
<defs>
<filter id="filter0_d_108_16" x="0" y="0" width="58" height="58" filterUnits="userSpaceOnUse" color-interpolation-filters="sRGB">
<feFlood flood-opacity="0" result="BackgroundImageFix"/>
<feColorMatrix in="SourceAlpha" type="matrix" values="0 0 0 0 0 0 0 0 0 0 0 0 0 0 0 0 0 0 127 0" result="hardAlpha"/>
<feOffset dy="4"/>
<feGaussianBlur stdDeviation="2"/>
<feComposite in2="hardAlpha" operator="out"/>
<feColorMatrix type="matrix" values="0 0 0 0 0 0 0 0 0 0 0 0 0 0 0 0 0 0 0.5 0"/>
<feBlend mode="normal" in2="BackgroundImageFix" result="effect1_dropShadow_108_16"/>
<feBlend mode="normal" in="SourceGraphic" in2="effect1_dropShadow_108_16" result="shape"/>
</filter>
</defs>
</svg>
