<svg width="29" height="28" viewBox="0 0 29 28" fill="none" xmlns="http://www.w3.org/2000/svg">
<g clip-path="url(#clip0_258_2430)">
<path fill-rule="evenodd" clip-rule="evenodd" d="M7.79022 11.7083L5.04297 3.41992L26.2797 14.0004L5.04297 24.5821L7.78987 16.2939L14.1905 15.4881C14.9399 15.3937 15.502 14.7564 15.502 14.0011C15.502 13.2457 14.9399 12.6084 14.1905 12.5141L7.79022 11.7083Z" fill="#99B1E6"/>
<path d="M5.03911 3.41798L5.4293 2.63479C5.11298 2.4772 4.7329 2.52536 4.46589 2.75688C4.19888 2.9884 4.09735 3.35781 4.20854 3.69327L5.03911 3.41798ZM7.78636 11.7063L6.9558 11.9816C7.06189 12.3017 7.34249 12.5323 7.67707 12.5745L7.78636 11.7063ZM26.2759 13.9984L26.6662 14.7816C26.9632 14.6336 27.151 14.3303 27.1509 13.9984C27.1509 13.6666 26.9632 13.3633 26.6661 13.2153L26.2759 13.9984ZM5.03911 24.5801L4.20853 24.3048C4.09735 24.6403 4.19889 25.0097 4.46591 25.2412C4.73294 25.4727 5.11301 25.5209 5.42933 25.3633L5.03911 24.5801ZM7.78601 16.2919L7.67671 15.4237C7.34213 15.4659 7.06153 15.6965 6.95544 16.0166L7.78601 16.2919ZM4.20854 3.69327L6.9558 11.9816L8.61692 11.431L5.86967 3.14268L4.20854 3.69327ZM26.6661 13.2153L5.4293 2.63479L4.64891 4.20116L25.8858 14.7816L26.6661 13.2153ZM5.42933 25.3633L26.6662 14.7816L25.8857 13.2153L4.64888 23.7969L5.42933 25.3633ZM6.95544 16.0166L4.20853 24.3048L5.86968 24.8554L8.61658 16.5672L6.95544 16.0166ZM14.0774 14.6179L7.67671 15.4237L7.8953 17.16L14.296 16.3542L14.0774 14.6179ZM14.6232 13.9991C14.6232 14.3134 14.3893 14.5787 14.0774 14.6179L14.296 16.3542C15.4829 16.2048 16.3732 15.1954 16.3732 13.9991H14.6232ZM14.0774 13.3802C14.3893 13.4195 14.6232 13.6847 14.6232 13.9991H16.3732C16.3732 12.8027 15.483 11.7934 14.296 11.6439L14.0774 13.3802ZM7.67707 12.5745L14.0774 13.3802L14.296 11.6439L7.89566 10.8382L7.67707 12.5745Z" fill="#99B1E6"/>
</g>
<defs>
<clipPath id="clip0_258_2430">
<rect width="28" height="28" fill="white" transform="translate(0.5)"/>
</clipPath>
</defs>
</svg>
