<svg width="33" height="32" viewBox="0 0 33 32" fill="none" xmlns="http://www.w3.org/2000/svg">
<path d="M18.1249 1H14.9431C13.1858 1 11.7613 2.34315 11.7613 4C11.7613 5.89602 9.73264 7.10145 8.06736 6.19495L7.89822 6.10287C6.37637 5.27445 4.4304 5.76607 3.55176 7.20095L1.96084 9.79903C1.08221 11.2339 1.60363 13.0687 3.12548 13.8971C4.79154 14.804 4.79154 17.196 3.12547 18.1029C1.60363 18.9313 1.0822 20.7661 1.96084 22.201L3.55176 24.799C4.4304 26.2339 6.37637 26.7256 7.89822 25.8971L8.06736 25.8051C9.73264 24.8985 11.7613 26.104 11.7613 28C11.7613 29.6569 13.1858 31 14.9431 31H18.1249C19.8822 31 21.3068 29.6569 21.3068 28C21.3068 26.104 23.3354 24.8985 25.0007 25.805L25.1698 25.8971C26.6917 26.7255 28.6377 26.2339 29.5163 24.799L31.1072 22.201C31.9858 20.7661 31.4644 18.9313 29.9426 18.1029C28.2765 17.1959 28.2765 14.8041 29.9426 13.8971C31.4644 13.0687 31.9858 11.2339 31.1072 9.79905L29.5163 7.20097C28.6377 5.7661 26.6917 5.27447 25.1698 6.1029L25.0007 6.19496C23.3354 7.10147 21.3068 5.89603 21.3068 4C21.3068 2.34315 19.8822 1 18.1249 1Z" stroke="white" stroke-width="1.5"/>
<path d="M21.534 16C21.534 18.7614 19.2955 21 16.534 21C13.7726 21 11.534 18.7614 11.534 16C11.534 13.2386 13.7726 11 16.534 11C19.2955 11 21.534 13.2386 21.534 16Z" stroke="white" stroke-width="1.5"/>
</svg>
